 <svg  version="1.0" xmlns="http://www.w3.org/2000/svg"  width="300.000000pt" height="400.000000pt" viewBox="0 0 300.000000 400.000000"  preserveAspectRatio="xMidYMid meet">  <g transform="translate(0.000000,400.000000) scale(0.100000,-0.100000)" fill="#2321ab" stroke="none"> <path d="M926 3968 c-7 -47 -25 -202 -31 -278 -4 -44 -3 -62 4 -55 6 6 15 60 21 120 6 61 14 140 19 178 7 67 -4 97 -13 35z"/> <path d="M957 3938 c-15 -149 -26 -256 -31 -298 l-6 -45 14 40 c8 22 15 58 15 80 1 22 8 90 16 150 17 130 18 135 6 135 -4 0 -11 -28 -14 -62z"/> <path d="M1653 3983 c10 -64 80 -149 112 -137 9 4 32 37 51 75 38 76 39 79 23 79 -5 0 -24 -29 -40 -64 -17 -35 -37 -67 -45 -70 -10 -4 -24 15 -49 64 -33 66 -58 91 -52 53z"/> <path d="M1535 3787 c-43 -9 -59 -20 -142 -102 -51 -50 -93 -99 -93 -107 0 -25 -18 -27 -154 -12 -153 17 -995 103 -1083 111 -54 5 -63 3 -63 -11 0 -11 9 -16 33 -17 17 0 42 -2 55 -5 12 -2 30 -5 40 -7 9 -1 22 -6 29 -10 7 -4 13 0 16 10 4 17 5 17 6 1 1 -19 31 -26 31 -8 0 7 6 7 18 1 10 -5 60 -12 112 -15 83 -5 167 -13 325 -31 22 -2 69 -7 105 -10 36 -3 81 -8 100 -10 19 -3 64 -7 100 -10 187 -14 258 -23 265 -35 6 -9 -51 -84 -94 -123 -17 -16 -29 -33 -25 -38 3 -5 -2 -9 -10 -9 -10 0 -13 -6 -10 -15 4 -8 3 -23 -1 -32 -7 -17 -8 -16 -15 2 -9 20 -9 20 -9 0 -1 -12 -6 -26 -12 -32 -7 -7 -12 -22 -13 -35 -1 -18 -7 -23 -26 -23 -23 0 -25 4 -30 60 -3 34 -8 55 -13 48 -4 -7 -5 -23 -1 -36 3 -14 1 -28 -5 -31 -11 -7 -15 5 -30 84 l-9 45 -2 -45 -3 -45 -7 45 -7 45 -1 -52 c-1 -28 3 -55 8 -58 6 -3 10 -17 10 -30 0 -25 -15 -29 -67 -19 -19 4 -23 11 -23 45 0 40 0 40 -33 34 -41 -8 -67 13 -67 54 0 26 -15 51 -56 94 -21 21 -53 22 -60 2 -4 -8 -15 -15 -25 -15 -10 0 -19 -4 -19 -10 0 -5 5 -10 11 -10 6 0 8 -8 4 -19 -3 -10 1 -24 10 -31 8 -7 15 -24 15 -39 0 -15 9 -34 20 -44 24 -20 24 -17 5 47 -19 62 -19 102 -1 109 14 6 56 -51 56 -74 0 -13 55 -93 84 -122 13 -13 26 -35 29 -49 4 -14 10 -34 14 -44 4 -12 3 -15 -5 -10 -7 4 -12 1 -12 -9 0 -20 23 -29 57 -20 l27 6 -26 22 c-25 21 -48 56 -48 73 0 4 15 -7 33 -24 18 -18 44 -35 58 -37 42 -9 122 16 167 52 37 31 42 39 42 77 0 44 27 86 54 86 8 0 17 12 21 27 4 19 9 23 15 14 5 -10 10 -4 15 18 4 17 11 29 16 25 5 -3 9 1 9 10 0 8 4 16 8 18 4 2 20 23 34 48 26 44 172 199 214 227 34 22 64 24 92 6 l27 -17 -20 24 c-11 14 -20 25 -20 26 0 0 -22 -4 -50 -9z m-555 -582 c0 -16 -30 -29 -42 -17 -6 6 -3 16 7 26 18 17 35 13 35 -9z"/> <path d="M1544 3747 c-12 -7 -20 -16 -18 -22 2 -5 0 -14 -4 -20 -12 -16 -56 -51 -49 -38 4 6 2 15 -4 19 -8 5 -10 1 -7 -13 3 -11 -1 -28 -10 -39 -14 -18 -14 -17 -8 9 8 35 1 35 -12 -1 -14 -40 11 -38 47 4 16 18 31 30 34 28 3 -3 8 4 12 15 3 12 11 21 17 21 6 0 7 -7 3 -17 -4 -10 -10 -26 -12 -36 -3 -10 -20 -24 -38 -32 -39 -16 -62 -50 -43 -61 7 -4 10 -4 6 1 -9 10 9 45 23 45 6 0 8 -7 5 -16 -6 -14 -4 -15 9 -4 13 11 13 15 3 22 -9 7 -6 8 10 5 13 -3 21 -3 18 0 -3 3 1 12 9 20 8 8 15 23 15 34 0 13 4 18 12 13 6 -4 8 -3 5 3 -4 6 0 19 9 29 14 18 15 18 9 -3 -5 -17 -3 -22 8 -17 11 4 13 -1 10 -20 -3 -16 -1 -26 6 -26 16 0 13 37 -5 66 -16 23 -18 24 -35 8 -21 -18 -27 -6 -7 14 17 17 6 22 -18 9z"/> <path d="M1578 3601 c-24 -26 -33 -42 -25 -45 7 -4 3 -5 -9 -2 -18 3 -20 -1 -16 -23 3 -17 7 -21 10 -11 3 8 11 19 19 23 7 5 10 13 7 19 -5 8 -1 9 10 5 9 -4 15 -3 12 1 -7 12 24 53 35 47 5 -4 9 1 9 9 0 25 -12 19 -52 -23z"/> <path d="M1390 3599 c0 -29 -19 -61 -32 -53 -7 5 -8 2 -3 -6 6 -10 4 -12 -8 -7 -12 4 -14 2 -10 -10 4 -10 2 -14 -4 -10 -7 5 -9 0 -6 -13 6 -22 -12 -28 -21 -7 -3 6 -3 1 0 -12 3 -13 2 -21 -2 -18 -5 3 -9 -8 -10 -25 -1 -16 -7 -35 -14 -41 -10 -10 -11 -5 -6 23 l6 35 -14 -35 c-20 -47 -20 -108 -1 -127 9 -8 19 -13 22 -9 4 3 3 6 -1 6 -4 0 -2 10 5 21 8 17 8 20 -1 14 -9 -5 -10 -1 -5 16 14 54 38 98 49 92 6 -3 5 0 -1 8 -14 14 -18 33 -5 26 7 -5 40 24 35 30 -6 6 -2 19 13 38 12 16 17 17 23 7 7 -11 9 -10 14 3 4 10 3 14 -4 10 -7 -5 -8 5 -4 29 5 24 3 36 -4 36 -6 0 -11 -9 -11 -21z"/> <path d="M1656 3506 c3 -16 -3 -37 -15 -54 -11 -15 -23 -43 -26 -62 -3 -19 -18 -50 -32 -68 -29 -38 -26 -51 6 -25 14 11 29 45 41 88 10 39 20 66 21 60 5 -30 4 -67 -3 -71 -4 -3 -8 -16 -8 -29 0 -13 -4 -26 -10 -30 -10 -6 -8 -111 3 -121 3 -4 2 -15 -4 -25 -7 -14 -6 -19 3 -19 6 0 3 -7 -8 -15 -11 -8 -14 -15 -6 -15 8 0 12 -22 12 -77 0 -42 3 -73 7 -69 4 4 6 37 5 73 -3 75 11 122 36 118 9 -1 12 0 5 2 -10 4 -15 27 -28 136 -2 20 0 37 4 37 4 0 8 13 9 29 0 16 6 48 12 71 l11 42 117 -7 c64 -4 124 -8 132 -10 8 -1 56 -6 105 -9 176 -13 570 -47 595 -51 86 -14 355 -43 359 -39 2 2 2 6 0 9 -5 4 -344 41 -649 69 -463 44 -675 68 -686 77 -10 8 -12 5 -8 -15z"/> <path d="M1405 3501 c2 -13 -1 -18 -9 -15 -8 3 -16 -2 -20 -11 -3 -9 -10 -14 -14 -11 -5 3 -9 -1 -9 -9 0 -8 4 -12 9 -9 12 8 10 -10 -4 -26 -7 -8 -3 -6 9 4 18 15 21 15 19 2 -1 -9 -11 -26 -23 -38 -28 -32 -46 -68 -33 -68 5 0 10 -8 10 -17 0 -16 2 -16 11 -3 8 12 9 9 5 -12 -8 -37 2 -36 15 2 6 16 15 28 19 25 10 -6 21 21 13 29 -4 3 -15 -2 -26 -11 -20 -18 -20 -18 -3 9 10 15 14 33 10 39 -4 7 -1 17 7 23 8 6 14 21 15 32 1 17 -4 20 -20 17 -19 -4 -18 -3 3 10 25 15 36 43 21 52 -5 3 -7 -3 -5 -14z"/> <path d="M180 3448 c0 -17 3 -19 9 -9 6 10 24 12 65 9 31 -3 56 -1 56 4 0 4 -17 8 -37 9 -21 0 -50 3 -65 5 -24 4 -28 1 -28 -18z"/> <path d="M1464 3440 c-10 -16 -25 -31 -33 -34 -9 -3 -5 -4 9 -3 14 1 25 7 25 12 1 6 6 20 13 33 19 33 6 27 -14 -8z"/> <path d="M1515 3462 c-27 -19 -53 -71 -48 -93 3 -13 2 -21 -2 -17 -5 5 -20 -16 -35 -45 -15 -28 -32 -51 -38 -50 -6 2 -14 -18 -18 -42 -3 -25 -11 -45 -16 -45 -5 0 -6 -5 -3 -10 4 -6 1 -18 -7 -27 -8 -11 -8 -14 -1 -10 7 4 16 0 22 -10 6 -11 11 -13 11 -5 0 8 9 12 23 10 21 -3 22 1 22 57 0 33 5 67 10 75 23 34 35 63 30 70 -3 5 -1 11 5 15 5 3 10 17 10 31 0 14 4 23 9 20 5 -3 18 12 30 34 19 37 17 57 -4 42z"/> <path d="M407 3351 l6 -104 -39 6 c-21 4 -45 7 -51 7 -9 0 -13 17 -13 49 0 58 -15 76 -23 28 -3 -17 -8 -40 -12 -49 -5 -13 -2 -18 9 -18 9 0 20 -8 23 -17 4 -10 16 -26 28 -35 19 -17 17 -17 -52 -18 l-72 0 -4 33 c-4 31 -4 31 -5 -5 -2 -37 -1 -38 33 -39 19 -1 40 -3 45 -4 6 -1 14 -3 19 -4 4 0 7 -37 5 -80 -2 -59 1 -83 12 -92 8 -6 14 -18 14 -25 0 -8 7 -14 16 -14 9 0 14 -6 12 -12 -3 -8 -28 -14 -66 -16 l-62 -3 2 -42 1 -42 4 38 4 37 100 0 99 0 0 -42 c0 -24 3 -67 7 -96 l6 -54 -34 2 c-19 2 -43 2 -54 1 -20 -2 -20 -2 0 -17 20 -15 20 -15 1 -30 -18 -13 -15 -14 32 -14 33 0 54 -5 56 -12 3 -7 7 -51 11 -97 l6 -83 -25 6 c-14 3 -37 1 -51 -6 -25 -11 -26 -13 -8 -25 15 -12 16 -15 3 -23 -10 -6 3 -7 38 -3 l52 6 0 -50 c0 -28 3 -71 6 -97 l7 -46 -35 0 c-41 0 -52 -8 -37 -26 16 -20 3 -31 -44 -40 -32 -5 -37 -8 -23 -14 28 -10 37 -41 18 -63 -13 -15 -14 -20 -3 -26 9 -6 5 -10 -13 -15 -15 -4 -24 -11 -21 -16 3 -6 -1 -7 -10 -4 -10 4 -13 10 -7 16 6 6 6 24 0 49 -8 29 -7 43 2 54 10 12 10 15 -3 15 -14 0 -30 47 -20 62 2 5 25 8 51 8 l47 0 -3 52 c-6 110 -26 132 -28 31 -1 -53 -12 -72 -41 -73 -18 0 -23 13 -32 85 -6 55 -5 67 8 75 14 8 14 9 0 10 -15 0 -29 27 -29 58 0 8 17 12 50 12 33 0 50 4 51 13 2 32 -4 92 -11 111 -7 16 -9 8 -9 -30 -1 -60 -18 -87 -52 -82 -20 2 -25 10 -30 43 -5 31 -6 23 -7 -35 -1 -41 3 -93 8 -115 5 -22 10 -69 11 -105 1 -36 8 -117 15 -180 7 -63 14 -118 14 -123 0 -4 11 -5 25 -1 15 4 25 2 25 -5 0 -13 -35 -33 -44 -24 -3 3 -6 -3 -6 -14 0 -11 -11 -30 -25 -43 -14 -13 -25 -35 -25 -50 0 -36 -53 -82 -86 -74 -23 6 -29 20 -26 63 0 8 -4 25 -8 37 -6 14 -5 26 0 29 6 4 10 17 10 31 0 14 -4 22 -10 19 -6 -3 -10 -1 -10 4 0 6 6 11 13 11 9 0 9 2 0 8 -17 11 -24 73 -11 90 7 8 7 16 0 25 -12 16 -13 108 0 124 7 9 5 15 -6 19 -10 4 -16 18 -16 38 1 98 -7 190 -17 193 -7 3 -9 14 -4 31 5 15 4 37 0 50 -5 13 -4 22 1 22 6 0 5 11 -1 27 -6 15 -9 42 -7 59 1 17 -4 40 -12 50 -8 10 -10 15 -4 11 7 -4 14 2 17 13 4 14 0 20 -11 21 -11 0 -12 2 -4 6 6 2 12 14 12 26 0 18 -2 19 -11 7 -8 -12 -9 -12 -7 5 1 11 -2 26 -6 34 -7 11 -5 13 8 8 13 -5 15 -3 7 11 -5 10 -13 63 -16 118 -6 93 -28 211 -42 223 -8 8 3 -140 33 -479 14 -151 31 -349 39 -440 8 -91 17 -181 20 -200 11 -78 26 -321 20 -330 -4 -7 -12 -7 -25 0 -13 7 -21 6 -30 -5 -7 -8 -16 -12 -21 -9 -5 3 -9 -2 -9 -10 0 -9 -4 -16 -9 -16 -17 0 -25 -55 -26 -178 -1 -67 0 -121 2 -119 2 2 4 20 5 40 1 20 5 34 9 32 13 -8 20 28 22 110 3 109 11 120 98 140 39 9 85 23 101 31 31 16 58 66 58 107 0 15 9 28 24 37 27 14 39 37 60 123 17 64 60 144 106 196 16 18 41 56 56 85 14 28 33 64 41 80 12 23 14 36 5 58 -6 16 -7 30 -1 34 5 3 5 12 0 22 -15 30 -23 74 -11 67 12 -8 13 -3 0 29 -5 14 -6 25 -1 23 5 -1 8 2 8 8 -1 5 -6 10 -12 11 -5 0 -16 2 -23 2 -7 1 -11 6 -7 11 3 5 1 12 -5 16 -5 3 -10 -1 -10 -9 0 -8 5 -18 10 -21 6 -4 8 -11 5 -16 -4 -5 1 -12 9 -15 9 -3 16 -13 16 -21 0 -8 -4 -12 -9 -9 -5 4 -5 -10 0 -32 12 -50 11 -52 -6 -52 -10 0 -15 11 -16 35 -2 57 -4 60 -22 57 -10 -2 -17 3 -17 13 0 8 5 15 10 15 20 0 9 27 -16 39 -23 10 -24 14 -13 28 12 14 12 16 0 8 -10 -5 -12 -4 -7 4 4 6 16 9 26 6 15 -5 17 -2 13 15 -4 15 -1 20 13 20 13 0 15 3 7 8 -7 4 -15 35 -18 67 -3 33 -8 72 -10 88 -4 21 -1 27 14 27 37 0 51 -11 41 -31 -16 -29 -26 -144 -12 -135 6 4 17 26 24 49 6 23 20 54 30 70 10 15 26 39 36 55 35 53 35 52 -2 52 -32 0 -36 -3 -36 -25 0 -21 -5 -25 -28 -25 -15 0 -33 5 -39 11 -7 7 -14 6 -24 -4 -24 -24 -58 -27 -69 -7 -14 26 -13 34 10 48 17 10 24 9 41 -7 18 -17 25 -18 47 -8 l27 12 -31 3 c-29 3 -32 7 -38 49 -3 25 -6 63 -6 83 0 38 -21 67 -40 55 -5 -3 -15 6 -20 20 -15 39 -12 55 10 55 11 0 20 -4 20 -9 0 -5 9 -11 20 -14 20 -5 29 -37 10 -37 -5 0 -10 -3 -10 -7 0 -5 35 -9 78 -11 42 -2 84 -5 92 -7 13 -4 15 3 12 35 -4 39 -5 40 -43 40 -41 0 -50 -12 -21 -29 15 -9 15 -12 2 -21 -14 -9 -63 -5 -83 7 -5 3 -1 14 9 24 16 17 16 19 1 20 -10 1 -22 2 -29 3 -7 0 -17 29 -23 63 -12 65 -25 93 -25 54 0 -34 -18 -15 -25 27 -14 85 -25 64 -18 -37z m22 -313 l1 -38 -50 0 -51 0 2 63 c1 34 -2 74 -6 89 -7 26 -6 27 42 30 l48 3 6 -55 c4 -30 7 -72 8 -92z m104 -553 c8 -19 -4 -95 -15 -95 -4 0 -13 12 -19 27 -6 15 -15 31 -21 34 -7 5 -4 15 8 32 19 25 38 26 47 2z m41 -54 c6 -9 -12 -67 -18 -60 -2 2 -6 19 -9 37 -5 24 -3 32 8 32 7 0 16 -4 19 -9z"/> <path d="M353 3420 l-23 -18 26 -6 c32 -8 40 -2 28 23 -9 19 -10 19 -31 1z"/> <path d="M867 3375 c-4 -8 -1 -17 5 -21 6 -4 8 -21 5 -40 -3 -19 -2 -34 4 -34 5 0 9 25 9 55 0 52 -11 72 -23 40z"/> <path d="M566 3334 c-3 -9 -12 -14 -21 -10 -9 3 -19 -3 -25 -14 -8 -15 -6 -24 10 -40 11 -11 28 -20 39 -20 16 0 18 7 15 46 -4 53 -9 62 -18 38z"/> <path d="M1221 3334 c0 -10 7 -35 15 -54 l14 -35 -6 34 c-3 18 -7 40 -8 47 -3 22 -16 29 -15 8z"/> <path d="M1970 3320 c0 -5 4 -10 10 -10 5 0 9 -8 8 -17 -3 -46 3 -143 10 -143 4 0 6 38 4 84 -3 82 -3 85 20 89 15 3 10 5 -14 6 -21 0 -38 -3 -38 -9z"/> <path d="M1200 3294 c6 -14 10 -35 9 -47 -1 -20 -2 -20 -9 3 -7 22 -8 22 -11 5 -5 -36 -7 -50 -9 -55 -9 -25 -6 -38 6 -33 8 3 13 12 12 21 -2 8 5 16 15 17 12 2 17 -4 17 -20 0 -27 -13 -38 -45 -39 -13 -1 -35 -17 -51 -36 -16 -19 -21 -29 -12 -21 10 7 25 11 33 7 9 -3 13 -2 10 4 -7 11 66 59 82 53 15 -6 10 -32 -8 -44 -10 -8 -7 -8 10 -4 16 5 21 4 17 -4 -4 -6 -2 -11 3 -11 6 0 11 -7 11 -15 0 -8 4 -15 8 -15 5 0 9 -6 9 -13 0 -20 84 -157 93 -152 4 3 10 -2 14 -10 3 -9 12 -12 21 -8 13 5 14 7 3 14 -7 5 -9 9 -5 9 4 0 2 6 -5 14 -7 7 -18 12 -24 9 -5 -2 -19 7 -30 19 l-19 23 24 -20 c17 -14 22 -16 19 -5 -3 8 2 24 11 35 15 18 15 19 -1 6 -9 -7 -21 -10 -27 -7 -17 11 -51 87 -51 116 0 23 -4 28 -18 25 -15 -3 -18 2 -14 22 3 18 1 24 -7 19 -7 -5 -11 2 -11 19 0 14 -4 24 -9 21 -4 -3 -6 7 -4 22 3 23 2 24 -6 7 -9 -18 -10 -18 -10 -2 -1 18 -38 97 -46 97 -2 0 0 -12 5 -26z"/> <path d="M2054 3311 c4 -6 25 -11 46 -11 64 0 70 -6 70 -69 0 -31 5 -63 11 -71 8 -11 9 7 4 63 l-6 77 29 0 c20 0 32 -7 40 -22 9 -20 11 -20 11 -4 1 12 6 16 17 12 9 -3 29 -6 45 -6 l29 0 0 -70 c0 -38 4 -70 9 -70 5 0 9 35 8 79 l-2 79 -110 6 c-60 4 -132 10 -159 13 -34 4 -47 2 -42 -6z"/> <path d="M1798 3303 c-2 -5 -1 -35 3 -68 l6 -60 1 68 c2 61 -1 80 -10 60z"/> <path d="M690 3282 c0 -11 7 -36 15 -56 11 -25 12 -36 4 -36 -8 0 -9 -4 0 -13 6 -8 8 -17 4 -21 -4 -4 -1 -11 7 -16 9 -6 10 -10 3 -10 -6 0 -10 -8 -8 -17 2 -10 4 -21 4 -25 2 -16 21 -7 21 10 0 9 9 23 20 30 11 7 20 22 20 35 l-1 22 -21 -25 -21 -25 6 41 c5 31 3 45 -8 54 -8 7 -15 19 -15 27 0 8 -7 21 -15 29 -13 14 -15 13 -15 -4z"/> <path d="M2419 3258 c4 -26 6 -28 9 -10 3 18 10 22 43 22 21 0 40 -4 40 -10 1 -5 3 -14 4 -20 1 -5 3 -32 4 -60 0 -27 4 -50 9 -50 4 0 6 35 4 77 l-3 78 -58 3 -58 3 6 -33z"/> <path d="M1564 3259 c-12 -11 -29 -22 -40 -23 -14 -2 -20 -12 -22 -42 l-2 -39 20 35 c10 19 19 30 20 23 0 -7 7 -10 15 -6 9 3 13 8 10 11 -3 3 7 18 22 34 32 33 10 40 -23 7z"/> <path d="M2580 3271 c0 -5 21 -11 48 -13 l47 -3 5 -70 c6 -88 22 -70 18 20 -3 65 -3 65 -33 66 -16 0 -42 3 -57 5 -16 3 -28 0 -28 -5z"/> <path d="M2819 3251 c10 -6 14 -27 12 -69 -1 -35 3 -63 10 -67 7 -5 10 15 7 69 -3 68 -5 76 -23 76 -16 0 -17 -2 -6 -9z"/> <path d="M2933 3243 c37 -4 37 -5 38 -51 1 -26 4 -58 9 -72 13 -44 22 1 13 66 l-8 59 -45 1 c-39 1 -40 1 -7 -3z"/> <path d="M1569 3153 c-13 -15 -16 -21 -6 -14 21 16 23 -1 2 -19 -8 -6 -14 -15 -13 -18 3 -17 -15 -40 -27 -36 -7 3 -16 0 -20 -5 -3 -6 -11 -8 -17 -5 -7 4 -8 2 -4 -5 5 -8 12 -9 20 -2 6 6 26 8 44 6 17 -2 34 0 37 5 3 6 -1 7 -10 4 -20 -8 -16 16 5 33 12 9 16 8 22 -5 4 -9 5 5 3 32 -3 27 -6 51 -8 53 -2 1 -14 -9 -28 -24z"/> <path d="M547 3093 c-5 -69 4 -93 37 -93 13 0 16 13 16 68 0 71 -5 85 -31 90 -13 2 -17 -10 -22 -65z"/> <path d="M1487 3124 c-3 -17 0 -24 10 -24 10 0 13 6 9 16 -3 8 -2 12 4 9 6 -3 10 -2 10 3 0 6 -6 12 -14 15 -9 4 -16 -3 -19 -19z"/> <path d="M1685 3122 c12 -12 125 -21 125 -9 0 4 -22 7 -49 7 -27 0 -58 3 -68 6 -12 5 -15 4 -8 -4z"/> <path d="M680 3095 c0 -41 10 -76 21 -69 13 8 10 46 -6 74 l-14 25 -1 -30z"/> <path d="M1880 3112 c0 -6 26 -12 58 -14 l57 -3 3 -78 c3 -78 3 -79 -20 -72 -18 6 -20 5 -12 -5 7 -7 20 -9 30 -6 17 5 19 15 16 91 l-3 85 -49 0 c-27 0 -55 3 -64 6 -9 3 -16 1 -16 -4z"/> <path d="M869 3094 c-20 -8 -41 -25 -48 -37 -6 -12 -10 -15 -10 -7 3 39 -1 44 -17 24 -8 -10 -12 -12 -8 -4 4 8 -5 4 -19 -9 -27 -25 -35 -37 -17 -26 13 8 13 -1 0 -25 -15 -29 4 -32 24 -4 11 13 24 24 31 24 6 0 24 14 40 30 16 17 37 30 47 30 10 0 18 5 18 10 0 12 3 12 -41 -6z"/> <path d="M1186 3099 c3 -5 -7 -14 -21 -19 -14 -5 -23 -14 -20 -20 3 -5 8 -10 11 -10 3 0 3 4 0 8 -3 4 8 13 24 19 23 9 28 8 23 -3 -3 -8 1 -14 10 -14 22 0 10 37 -14 43 -10 3 -17 1 -13 -4z"/> <path d="M2070 3098 c0 -4 25 -8 55 -8 l55 0 0 -69 c0 -41 5 -73 11 -77 9 -5 10 14 4 72 -4 43 -8 80 -9 80 -7 7 -116 9 -116 2z"/> <path d="M2250 3088 c0 -5 22 -8 49 -8 57 0 61 -6 61 -86 0 -33 4 -54 11 -54 8 0 9 11 5 31 -3 17 -6 51 -6 74 l0 43 -60 4 c-33 1 -60 0 -60 -4z"/> <path d="M2420 3078 c0 -5 23 -8 50 -8 l50 0 0 -64 c0 -36 5 -68 10 -71 6 -4 10 21 10 69 l0 74 -60 4 c-33 1 -60 0 -60 -4z"/> <path d="M1813 3020 c0 -36 2 -50 4 -32 2 17 2 47 0 65 -2 17 -4 3 -4 -33z"/> <path d="M2033 3010 c0 -36 2 -50 4 -32 2 17 2 47 0 65 -2 17 -4 3 -4 -33z"/> <path d="M2678 3000 c5 -91 22 -91 22 0 0 49 -4 70 -12 70 -10 0 -12 -19 -10 -70z"/> <path d="M2825 3059 c5 -7 9 -39 10 -71 1 -32 5 -61 9 -65 4 -4 6 26 4 67 -2 52 -7 75 -17 78 -9 3 -11 0 -6 -9z"/> <path d="M2980 2990 c0 -40 4 -70 10 -70 6 0 10 30 10 70 0 40 -4 70 -10 70 -6 0 -10 -30 -10 -70z"/> <path d="M1050 3042 c-6 -2 -8 -8 -4 -13 8 -13 47 -11 67 4 15 10 13 12 -18 12 -19 0 -40 -2 -45 -3z"/> <path d="M1513 3029 c-30 -19 -33 -19 -33 -4 0 15 -3 15 -15 5 -9 -7 -13 -15 -11 -18 3 -2 0 -14 -6 -26 -10 -18 -9 -19 4 -8 13 10 17 10 22 -3 7 -19 36 -20 36 0 0 8 -5 15 -11 15 -8 0 -8 4 0 14 13 15 64 29 55 15 -3 -5 0 -9 6 -9 14 0 9 32 -5 36 -5 2 -25 -6 -42 -17z"/> <path d="M1259 3005 c-8 -9 -29 -17 -46 -18 -29 -2 -30 -3 -16 -19 20 -22 27 -23 19 -3 -4 12 3 15 29 15 18 0 37 5 40 10 3 6 1 10 -5 10 -6 0 -8 5 -5 10 9 15 1 12 -16 -5z"/> <path d="M1020 2990 c0 -5 -15 -14 -32 -19 -25 -7 -28 -9 -11 -10 12 -1 27 -10 33 -20 9 -18 7 -19 -19 -11 -27 7 -28 6 -25 -21 2 -16 -1 -29 -6 -29 -6 0 -10 -7 -10 -15 0 -8 5 -15 11 -15 5 0 7 5 4 10 -3 6 2 10 12 10 20 1 64 30 45 30 -7 0 -5 7 6 18 9 11 20 17 24 15 4 -2 9 1 13 7 3 5 15 10 26 10 10 0 19 7 19 15 0 20 -9 19 -32 -2 -10 -9 -27 -18 -38 -20 -24 -3 -37 15 -16 23 18 7 22 34 6 34 -5 0 -10 -4 -10 -10z"/> <path d="M771 2938 c-13 -27 -19 -53 -15 -63 4 -11 3 -16 -2 -12 -11 6 -12 -79 0 -90 4 -4 4 1 1 12 -5 15 0 12 18 -9 16 -18 27 -24 31 -17 4 6 2 11 -3 11 -8 0 -8 6 0 18 7 11 22 17 38 16 40 -2 43 -3 36 -14 -3 -5 -1 -10 4 -10 6 0 11 4 11 8 0 10 62 6 119 -7 24 -5 50 -7 59 -4 11 5 13 3 7 -7 -5 -8 -4 -11 3 -6 6 4 9 13 5 22 -4 10 -9 11 -17 5 -8 -7 -23 -7 -42 -2 -16 5 -22 10 -14 10 13 1 13 3 1 10 -9 6 -22 6 -33 0 -12 -7 -18 -6 -18 1 0 7 -6 8 -17 2 -23 -13 -76 6 -69 24 4 10 -2 14 -20 14 -24 0 -24 1 -8 25 10 15 12 25 5 25 -6 0 -11 -8 -11 -17 -1 -16 -2 -16 -17 2 -12 16 -14 16 -10 3 3 -10 2 -20 -4 -24 -5 -3 -7 -15 -3 -26 4 -13 2 -18 -4 -14 -6 3 -13 2 -17 -4 -17 -27 -25 14 -16 85 1 6 9 1 17 -10 15 -19 15 -19 8 9 -4 18 -2 31 6 36 9 5 9 13 3 25 -9 15 -13 11 -32 -27z"/> <path d="M1277 2972 c-17 -3 -16 -5 4 -23 15 -13 18 -19 8 -20 -8 0 -2 -5 14 -11 15 -5 24 -14 21 -20 -4 -7 -2 -8 5 -4 6 4 14 0 17 -8 3 -9 10 -14 14 -11 5 3 17 -6 27 -19 10 -13 32 -26 48 -30 26 -5 28 -4 11 7 -43 28 -108 85 -129 113 -13 18 -29 28 -40 26z"/> <path d="M1437 2961 l-28 -6 28 -17 c28 -16 106 -19 120 -4 4 3 12 6 20 6 10 0 11 -5 4 -19 -9 -16 -7 -20 14 -23 21 -5 24 -2 19 17 -4 16 0 26 13 34 14 8 4 10 -42 8 -33 -1 -66 -8 -73 -14 -15 -15 -36 -18 -28 -4 3 4 -7 6 -22 3 -26 -4 -26 -4 -7 12 11 8 18 15 15 14 -3 0 -18 -3 -33 -7z"/> <path d="M1768 2937 c24 -7 36 -7 44 1 9 9 1 12 -32 11 l-45 -1 33 -11z"/> <path d="M328 2898 c-9 -49 -3 -141 10 -146 9 -3 12 15 12 70 0 75 -13 122 -22 76z"/> <path d="M673 2899 c-27 -10 -30 -24 -7 -33 11 -4 18 1 21 15 4 16 8 17 14 7 6 -9 9 -9 9 -1 0 18 -12 22 -37 12z"/> <path d="M866 2891 c-4 -6 0 -18 8 -27 9 -9 14 -20 11 -25 -4 -5 -1 -9 4 -9 15 0 13 20 -3 49 -9 15 -16 20 -20 12z"/> <path d="M1953 2893 l58 -4 -3 -84 c-2 -46 0 -81 5 -78 4 2 7 42 7 89 l0 84 -62 -2 -63 -2 58 -3z"/> <path d="M2278 2893 c-10 -2 -21 -15 -24 -28 -3 -13 -12 -26 -20 -29 -9 -4 -14 -21 -14 -51 0 -32 -4 -45 -14 -45 -15 0 -28 -48 -15 -56 5 -3 9 -39 9 -80 0 -56 -3 -74 -14 -74 -15 0 -42 -83 -37 -118 1 -14 -6 -34 -19 -47 l-21 -23 35 -6 c21 -4 36 -13 36 -21 0 -13 83 -45 116 -45 6 0 14 -7 18 -15 3 -9 0 -15 -9 -15 -8 0 -15 -4 -15 -9 0 -5 18 -8 41 -6 29 3 57 -4 96 -21 65 -30 123 -42 123 -26 0 6 -7 9 -15 6 -8 -4 -15 -1 -15 6 0 9 12 11 43 6 27 -4 37 -3 28 3 -11 7 -5 12 25 20 21 6 48 17 60 25 11 8 58 24 105 35 46 12 114 33 152 47 56 22 67 29 67 49 l0 24 -72 -33 c-40 -19 -91 -39 -113 -46 -22 -7 -53 -19 -70 -26 -16 -7 -31 -11 -33 -9 -2 2 22 36 55 75 32 40 67 85 78 101 11 16 25 27 32 25 6 -3 14 2 17 10 4 10 13 13 25 9 29 -9 46 27 20 43 -10 7 -19 22 -19 35 0 17 -2 19 -10 7 -5 -8 -11 -12 -15 -9 -3 3 6 18 20 33 33 36 32 56 -8 94 -42 41 -57 42 -23 1 29 -34 32 -55 12 -78 -22 -26 -29 -76 -12 -90 8 -7 12 -19 9 -26 -4 -12 -7 -12 -20 0 -17 18 -18 17 -100 -105 -79 -117 -118 -154 -188 -175 -33 -10 -65 -21 -70 -26 -6 -4 -42 7 -80 26 -39 18 -109 45 -156 61 l-86 28 1 46 c0 25 -3 58 -8 73 -7 23 -5 29 11 33 21 6 43 81 43 147 0 43 29 229 36 237 3 3 55 7 115 8 94 3 109 2 109 -12 0 -12 11 -16 48 -16 30 0 59 -8 81 -21 26 -16 36 -18 42 -8 6 10 13 10 31 2 41 -19 82 -31 128 -37 45 -5 104 -18 148 -31 21 -7 22 -5 22 64 0 41 -4 71 -10 71 -5 0 -10 -25 -10 -55 0 -30 -3 -55 -6 -55 -3 0 -25 11 -50 25 -53 30 -54 30 -54 8 0 -15 -2 -16 -10 -3 -5 8 -10 30 -10 48 0 17 -4 32 -8 32 -4 0 -6 -16 -4 -35 l4 -35 -42 5 c-23 3 -50 9 -59 14 -9 5 -20 8 -26 8 -5 -1 -11 8 -13 21 -4 28 -22 29 -22 1 0 -15 -4 -19 -16 -15 -9 3 -28 9 -42 13 l-27 7 25 7 c24 7 24 7 2 8 -12 1 -31 -5 -42 -11 -16 -10 -22 -10 -32 5 -11 14 -34 18 -133 21 -66 2 -128 2 -137 -1z m-61 -295 c-2 -18 -4 -4 -4 32 0 36 2 50 4 33 2 -18 2 -48 0 -65z m713 -53 c7 -9 10 -18 7 -21 -10 -11 -37 5 -37 21 0 19 14 19 30 0z"/> <path d="M2188 2843 c5 -83 9 -90 11 -20 0 37 -2 67 -7 67 -4 0 -6 -21 -4 -47z"/> <path d="M1094 2866 c-19 -10 -19 -13 -6 -25 11 -11 19 -11 32 -3 13 8 21 7 30 -1 7 -7 5 0 -5 16 -19 30 -21 30 -51 13z"/> <path d="M1640 2813 c0 -55 -3 -72 -16 -77 -26 -10 -51 -7 -64 9 -7 8 -16 15 -21 15 -12 0 -11 -57 1 -65 5 -3 7 0 4 8 -4 10 5 13 37 13 67 -1 77 12 72 91 -7 90 -13 93 -13 6z"/> <path d="M1671 2813 c-1 -39 3 -74 7 -77 4 -2 6 26 4 62 -5 93 -10 101 -11 15z"/> <path d="M1822 2798 l-2 -68 -32 0 c-30 0 -31 -1 -12 -14 22 -17 13 -23 -46 -29 -19 -2 -4 -5 35 -5 51 -2 66 1 58 9 -8 8 -2 20 23 46 19 18 34 41 33 51 0 14 -2 14 -8 -3 -8 -19 -9 -18 -13 5 -4 19 -6 16 -7 -12 -2 -66 -20 -52 -24 19 l-3 68 -2 -67z"/> <path d="M674 2839 c-5 -8 -3 -9 6 -4 12 8 11 -14 -5 -90 -3 -11 2 -6 10 10 16 34 19 81 6 90 -5 3 -13 0 -17 -6z"/> <path d="M2564 2737 c25 -46 48 -104 52 -128 4 -24 10 -51 15 -59 14 -25 2 90 -16 150 -9 30 -18 63 -19 72 -1 10 -6 21 -10 25 -5 5 -6 -10 -2 -32 l7 -40 -30 48 c-48 75 -47 55 3 -36z"/> <path d="M242 2755 c0 -22 3 -62 8 -90 l7 -50 1 50 c1 28 -3 68 -7 90 l-9 40 0 -40z"/> <path d="M598 2759 c-3 -13 -9 -33 -13 -43 -6 -14 -5 -17 3 -12 8 5 10 2 6 -8 -3 -9 -12 -16 -20 -16 -8 0 -11 -6 -8 -15 4 -8 10 -13 14 -10 10 6 23 -13 27 -38 2 -11 -1 -16 -8 -11 -8 4 -8 1 -2 -12 5 -11 8 -29 8 -41 -3 -36 12 -17 18 23 4 20 2 45 -3 55 -7 13 -6 22 6 33 14 14 12 20 -7 18 -3 -1 -6 5 -6 13 0 8 4 12 9 9 10 -7 3 38 -10 62 -8 14 -10 13 -14 -7z"/> <path d="M2697 2773 c-13 -13 -7 -84 14 -156 12 -39 24 -93 26 -119 3 -27 8 -46 12 -44 7 5 2 50 -22 199 -8 48 -13 97 -10 107 5 19 -7 27 -20 13z"/> <path d="M895 2748 c-13 -12 -18 -32 -18 -63 0 -43 -10 -59 -20 -32 -3 6 -4 -7 -2 -31 1 -27 9 -48 20 -56 10 -7 16 -20 13 -28 -4 -8 0 -15 8 -15 7 0 11 4 8 9 -9 14 7 9 33 -12 32 -25 52 -26 50 -1 0 11 -5 17 -10 14 -4 -2 -15 1 -24 9 -12 9 -15 9 -9 1 12 -20 -7 -15 -35 10 -14 12 -29 35 -33 51 -7 27 -6 28 21 22 23 -6 26 -5 16 5 -7 7 -13 17 -13 23 0 6 5 5 12 -2 7 -7 24 -12 40 -12 33 0 56 30 60 78 l2 32 21 -20 c17 -18 18 -22 5 -31 -12 -9 -12 -10 3 -5 10 3 23 6 28 6 6 0 7 5 4 10 -3 6 3 10 15 10 12 0 19 4 16 9 -3 5 2 8 11 7 9 0 18 4 20 10 2 7 -5 10 -22 7 -14 -3 -25 -10 -25 -17 0 -7 -4 -6 -9 2 -4 8 -12 14 -16 14 -4 0 -12 -6 -16 -14 -7 -10 -9 -9 -9 5 0 14 -7 16 -34 13 -19 -2 -37 -1 -41 2 -13 13 -51 8 -70 -10z m93 -32 c3 -42 -22 -70 -52 -61 -12 4 -26 7 -32 7 -14 2 -13 53 1 67 6 5 26 11 45 14 19 2 35 5 35 5 1 1 2 -13 3 -32z"/> <path d="M930 2711 c-7 -13 -7 -22 0 -26 13 -8 30 3 30 20 0 23 -18 27 -30 6z"/> <path d="M2798 2749 c6 -7 12 -21 12 -31 0 -10 10 -24 23 -33 18 -12 23 -22 20 -48 l-3 -32 16 31 c16 30 15 32 -10 57 -14 14 -26 31 -26 36 0 6 -10 16 -22 22 -19 9 -21 9 -10 -2z"/> <path d="M699 2745 c-1 -9 -3 -32 -8 -148 -1 -10 -5 -16 -10 -12 -6 3 -6 -7 -1 -26 13 -43 22 -50 19 -14 -4 49 0 77 10 70 6 -3 9 3 8 14 0 11 -5 17 -9 15 -4 -3 -8 0 -8 5 0 6 4 11 8 11 12 0 13 62 2 80 -5 8 -10 11 -11 5z"/> <path d="M757 2688 c5 -78 12 -98 50 -136 58 -57 81 -72 45 -27 -17 22 -32 45 -32 52 0 7 -7 13 -15 13 -14 0 -16 7 -19 70 -1 14 -5 31 -9 38 -5 7 -4 12 3 12 6 0 8 5 5 10 -3 6 -12 10 -19 10 -8 0 -11 -13 -9 -42z"/> <path d="M2754 2698 c2 -18 4 -45 5 -60 1 -35 17 -36 24 -2 5 28 -12 94 -24 94 -4 0 -6 -15 -5 -32z"/> <path d="M2427 2693 c-3 -5 -1 -46 3 -93 l7 -85 2 93 c1 86 -1 103 -12 85z"/> <path d="M1987 2683 c18 -4 23 -13 27 -56 12 -106 13 -111 15 -56 0 31 -2 71 -5 88 -5 26 -11 31 -33 30 -22 -2 -23 -2 -4 -6z"/> <path d="M1023 2668 c-4 -7 -8 -17 -8 -22 0 -5 -7 -12 -15 -15 -8 -3 -16 -12 -18 -20 -3 -12 -1 -12 15 0 35 27 63 54 63 62 0 12 -28 8 -37 -5z"/> <path d="M1680 2670 c-3 -21 1 -84 6 -89 9 -10 11 7 4 54 -4 28 -8 43 -10 35z"/> <path d="M1112 2653 c-18 -8 -31 -17 -30 -19 8 -7 63 13 66 24 3 15 4 15 -36 -5z"/> <path d="M1853 2605 c0 -38 2 -53 4 -32 2 20 2 52 0 70 -2 17 -4 1 -4 -38z"/> <path d="M2041 2640 c0 -19 4 -42 9 -50 8 -12 10 -11 9 5 -1 11 -5 34 -9 50 l-8 30 -1 -35z"/> <path d="M2557 2570 c3 -58 10 -114 15 -125 11 -26 1 147 -12 195 -6 24 -7 3 -3 -70z"/> <path d="M1832 2588 l-2 -68 -66 0 c-36 0 -63 -4 -60 -8 3 -5 18 -7 33 -5 16 2 37 -3 48 -11 20 -15 20 -15 0 -17 -11 -1 -4 -5 15 -8 43 -9 57 -3 34 13 -16 12 -15 14 7 29 13 10 18 17 12 17 -8 0 -13 23 -16 63 l-3 62 -2 -67z"/> <path d="M2675 2544 c-5 -63 -4 -109 1 -111 5 -2 8 -21 6 -43 -3 -26 0 -40 8 -40 8 0 10 38 5 147 -3 81 -7 149 -9 151 -2 2 -7 -45 -11 -104z"/> <path d="M2491 2590 c1 -19 5 -46 9 -60 7 -21 8 -17 9 20 0 25 -4 52 -9 60 -7 11 -9 6 -9 -20z"/> <path d="M1046 2571 c-17 -18 -17 -20 1 -25 10 -3 6 -4 -10 -2 -15 2 -30 -1 -33 -6 -10 -16 1 -18 39 -7 26 7 37 16 37 29 0 28 -15 32 -34 11z"/> <path d="M1280 2568 c0 -18 27 -44 37 -34 4 4 -3 16 -15 29 -18 17 -22 18 -22 5z"/> <path d="M780 2478 c22 -21 36 -23 46 -6 5 8 2 9 -9 5 -9 -3 -19 -2 -22 3 -3 4 1 10 7 13 7 2 1 4 -14 3 -26 -1 -26 -2 -8 -18z"/> <path d="M966 2481 c-4 -5 -2 -12 4 -16 5 -3 10 -3 10 1 0 4 13 -7 29 -25 25 -28 30 -30 28 -13 0 11 -5 18 -9 16 -4 -3 -8 3 -8 12 0 10 -3 14 -7 11 -3 -4 -14 0 -24 9 -10 9 -19 11 -23 5z"/> <path d="M2625 2458 c-3 -13 -7 -43 -9 -68 -3 -25 -7 -53 -11 -63 -4 -9 -4 -29 0 -45 l7 -27 10 25 c9 23 20 200 12 200 -2 0 -6 -10 -9 -22z"/> <path d="M2077 2462 c-5 -7 -13 -10 -18 -7 -5 4 -9 -20 -9 -54 0 -57 2 -61 23 -61 20 0 22 4 19 48 -5 82 -6 88 -15 74z"/> <path d="M2506 2445 c-3 -9 -5 -33 -5 -53 1 -34 2 -33 10 13 8 51 6 68 -5 40z"/> <path d="M1862 2377 c-2 -35 -5 -46 -14 -41 -10 5 -10 4 -2 -5 16 -17 67 -3 60 16 -3 8 -6 24 -6 36 -1 21 -1 21 -15 -3 l-13 -25 -5 35 c-3 30 -4 28 -5 -13z"/> <path d="M810 2384 c0 -13 3 -14 14 -5 13 11 55 9 76 -4 5 -3 10 -2 10 3 0 11 -34 22 -72 22 -19 0 -28 -5 -28 -16z"/> <path d="M1940 2360 c-28 -25 -23 -32 17 -24 24 5 30 10 26 25 -7 24 -14 24 -43 -1z"/> <path d="M1803 2333 c7 -13 35 -77 41 -95 7 -22 26 -24 26 -2 0 19 -31 74 -42 74 -4 0 -8 7 -8 15 0 8 -5 15 -11 15 -5 0 -8 -3 -6 -7z"/> <path d="M1114 2313 c-12 -12 -13 -18 -4 -21 9 -3 9 -7 -1 -14 -11 -8 -11 -9 1 -5 8 2 15 12 15 22 0 10 9 22 20 26 16 6 17 8 3 8 -9 1 -24 -7 -34 -16z"/> <path d="M2497 2304 c-14 -14 6 -24 46 -23 34 2 36 3 12 6 -16 3 -35 9 -41 14 -6 5 -14 6 -17 3z"/> <path d="M718 2289 c11 -14 9 -18 -10 -23 -21 -6 -22 -7 -6 -20 10 -7 15 -16 12 -19 -3 -3 4 -3 16 0 14 4 18 9 11 16 -5 5 -7 15 -5 22 3 6 -3 18 -13 26 -16 13 -17 12 -5 -2z"/> <path d="M969 2282 c-13 -15 -12 -16 3 -4 24 19 41 7 26 -18 -7 -10 -16 -16 -20 -14 -4 3 -8 1 -8 -4 0 -5 12 -9 28 -9 15 0 21 2 15 4 -19 7 -16 20 7 26 27 7 16 32 -14 35 -13 1 -30 -6 -37 -16z"/> <path d="M1280 2275 c0 -8 -4 -15 -8 -15 -5 0 -9 -7 -9 -15 0 -26 25 -16 36 15 8 24 7 30 -5 30 -7 0 -14 -7 -14 -15z"/> <path d="M799 2269 c-12 -7 -12 -9 1 -9 13 0 13 -2 0 -11 -13 -9 -13 -10 1 -6 9 3 23 0 30 -6 8 -7 11 -8 7 -3 -4 5 -3 16 2 25 6 13 4 17 -9 18 -9 1 -24 -3 -32 -8z"/> <path d="M1346 2204 c-3 -8 -9 -13 -13 -11 -5 2 -16 -4 -25 -15 -17 -17 -10 -27 6 -10 4 4 11 7 14 8 17 2 56 23 44 23 -7 1 -10 6 -7 11 3 6 2 10 -3 10 -6 0 -13 -7 -16 -16z"/> <path d="M503 2174 c-31 -39 -29 -59 3 -29 14 13 24 31 22 40 -2 13 -8 11 -25 -11z"/> <path d="M690 2191 c0 -5 -8 -7 -18 -4 -21 5 -47 -21 -56 -57 -6 -24 -6 -24 9 3 9 15 20 25 25 22 5 -3 11 -1 15 5 3 5 14 10 24 10 10 0 24 7 31 15 10 13 9 15 -9 15 -11 0 -21 -4 -21 -9z"/> <path d="M2245 2177 c-58 -42 -93 -87 -67 -87 8 0 45 38 86 88 24 27 20 27 -19 -1z"/> <path d="M720 2148 c0 -6 -3 -9 -6 -5 -9 9 -56 -51 -49 -63 9 -15 25 -2 19 15 -4 9 8 21 32 33 28 14 33 20 20 25 -9 4 -16 1 -16 -5z"/> <path d="M531 2113 c11 -13 11 -17 2 -20 -7 -3 -13 -9 -13 -14 0 -6 5 -7 10 -4 6 3 10 0 11 -7 0 -7 4 -4 8 7 8 20 -6 55 -23 55 -4 0 -2 -7 5 -17z"/> <path d="M758 2111 c3 -9 1 -12 -6 -7 -7 4 -12 3 -12 -3 0 -19 51 -24 82 -9 27 12 28 15 14 27 -14 12 -16 12 -11 -1 5 -12 0 -15 -22 -12 -24 4 -25 3 -8 -5 15 -7 16 -10 4 -10 -22 -1 -31 10 -18 25 8 10 6 13 -9 11 -13 -1 -18 -6 -14 -16z"/> <path d="M911 2121 c-12 -8 -9 -11 11 -16 14 -4 36 -5 49 -3 21 3 22 4 4 18 -11 9 -16 10 -11 3 5 -9 -1 -13 -19 -13 -15 0 -24 4 -20 10 8 12 4 12 -14 1z"/> <path d="M1161 2121 c-11 -7 -11 -9 0 -14 9 -4 8 -6 -5 -6 -11 -1 -16 -6 -13 -15 4 -10 -2 -16 -16 -19 -14 -3 -11 -5 8 -4 17 1 30 7 30 12 0 6 4 16 8 23 5 6 5 12 0 12 -4 0 -1 5 7 10 8 5 11 10 5 10 -5 0 -16 -4 -24 -9z"/> <path d="M623 2093 c-7 -3 -13 -11 -13 -19 0 -8 -7 -14 -15 -14 -8 0 -15 5 -15 10 0 6 -4 10 -8 10 -5 0 -9 -7 -9 -15 0 -8 3 -12 6 -10 4 2 15 -3 25 -10 22 -16 29 -92 9 -88 -7 2 -17 -6 -23 -17 -9 -17 -14 -18 -32 -9 -11 6 -36 9 -55 7 l-34 -4 23 17 c12 10 20 20 17 23 -3 3 -15 -3 -26 -14 -12 -10 -24 -16 -28 -12 -4 4 0 -6 10 -21 10 -15 32 -35 49 -44 30 -15 30 -15 16 2 -14 17 -13 18 2 12 9 -3 27 2 40 11 48 35 68 43 68 28 0 -8 -5 -17 -10 -19 -6 -3 -5 -4 2 -3 7 2 12 15 11 31 -1 15 1 25 4 21 3 -3 12 -1 20 5 9 8 13 8 13 1 0 -6 -4 -14 -10 -17 -14 -8 -13 -25 2 -25 6 0 9 3 5 6 -3 3 2 14 11 25 10 11 19 15 22 8 4 -6 12 -3 21 7 9 12 10 15 1 10 -7 -4 -25 -1 -41 7 -21 11 -32 12 -40 4 -8 -8 -11 -8 -11 0 0 6 4 13 8 15 5 2 12 15 15 29 7 29 -11 59 -30 52z"/> <path d="M1206 2092 c-5 -9 4 -20 31 -36 7 -4 11 1 10 13 0 11 -5 17 -10 14 -5 -3 -13 0 -17 7 -5 7 -10 8 -14 2z"/> <path d="M924 2075 c3 -8 0 -15 -7 -16 -17 -1 24 -17 46 -18 10 -1 15 4 12 9 -3 6 -1 10 6 10 7 0 9 3 6 6 -4 4 -13 1 -22 -6 -18 -15 -34 -5 -18 11 17 17 48 6 46 -16 -2 -15 9 -26 42 -41 l44 -21 -17 30 c-22 39 -69 67 -111 67 -25 0 -32 -3 -27 -15z"/> <path d="M1170 2036 c-6 -8 -28 -20 -48 -27 l-37 -12 27 -9 c22 -8 31 -5 52 17 14 14 31 23 36 20 6 -3 10 1 10 9 0 20 -24 21 -40 2z"/> <path d="M566 2022 c-4 -7 -3 -12 3 -12 6 0 8 -7 4 -16 -3 -8 -12 -13 -19 -10 -8 3 -14 1 -14 -4 0 -6 2 -10 4 -10 2 0 12 -3 22 -7 11 -4 15 -3 10 5 -3 6 0 15 9 19 13 8 13 12 2 27 -10 13 -16 15 -21 8z"/> <path d="M993 2005 c0 -10 10 -15 31 -15 l31 1 -25 14 c-32 18 -37 18 -37 0z"/> <path d="M781 2001 c-9 -6 8 -7 44 -5 32 2 61 6 63 9 9 9 -93 5 -107 -4z"/> <path d="M1236 1984 c-10 -25 -7 -29 17 -31 55 -4 123 -16 139 -24 13 -7 18 -6 18 2 0 21 -34 38 -73 39 -21 0 -51 7 -67 15 -25 13 -29 13 -34 -1z"/> <path d="M1010 1971 c-8 -6 -17 -8 -21 -5 -4 2 -13 -3 -20 -12 -11 -13 -8 -13 28 1 38 15 44 15 72 0 33 -16 42 -29 15 -18 -9 3 -20 0 -24 -8 -7 -10 -11 -8 -19 11 -5 14 -10 19 -10 12 -1 -7 -7 -10 -13 -7 -7 4 0 -6 16 -20 23 -21 31 -24 35 -14 4 8 12 14 19 15 6 1 17 2 24 3 6 0 1 12 -12 26 -24 26 -63 32 -90 16z"/> <path d="M2946 1973 c-4 -5 -37 -13 -74 -20 l-67 -12 65 3 c68 4 163 35 109 36 -14 0 -29 -3 -33 -7z"/> <path d="M387 1945 c-5 -10 1 -19 16 -25 12 -5 17 -9 10 -9 -22 -2 -38 -121 -17 -128 6 -2 11 2 12 9 1 7 3 25 5 40 1 15 8 33 14 39 9 9 11 8 10 -2 -2 -8 -6 -20 -10 -26 -8 -12 4 -17 40 -16 6 0 14 -6 17 -14 3 -8 1 -11 -5 -8 -5 4 -16 1 -24 -5 -8 -6 -18 -9 -24 -6 -5 4 -12 -2 -16 -13 -4 -13 -19 -21 -48 -25 -81 -13 -267 -133 -267 -172 0 -10 21 -24 37 -24 3 0 2 12 -1 28 -5 22 -4 24 6 11 11 -15 15 -15 47 7 20 12 59 26 86 29 100 11 113 23 21 18 -85 -3 -123 -14 -138 -37 -5 -8 -8 -7 -8 1 0 24 94 71 177 88 18 4 31 12 30 18 -1 7 10 13 26 15 15 2 27 8 27 13 0 5 7 9 15 9 8 0 15 5 15 11 0 5 4 8 9 5 5 -3 12 1 15 10 3 8 11 12 16 9 6 -4 17 -2 25 5 19 16 30 -6 12 -25 -8 -8 -17 -12 -19 -9 -3 2 -16 0 -29 -6 -18 -7 -5 -8 51 -4 41 3 90 5 107 5 24 -1 31 2 27 13 -3 9 -19 14 -43 13 -57 -1 -181 86 -188 132 -1 8 -8 20 -16 28 -12 13 -15 12 -20 -2z"/> <path d="M1420 1920 c0 -17 -5 -30 -11 -30 -5 0 -7 -5 -4 -10 3 -6 -1 -13 -9 -16 -9 -3 -16 -14 -16 -23 1 -12 6 -10 23 10 12 15 29 29 37 32 9 3 10 6 3 6 -16 1 -17 38 -1 43 7 3 6 7 -5 11 -14 5 -17 1 -17 -23z"/> <path d="M893 1921 c-3 -11 -9 -19 -13 -16 -9 6 -25 -13 -18 -20 2 -3 20 4 40 15 20 10 46 17 58 15 26 -5 52 4 44 16 -3 5 -10 9 -15 9 -6 0 -7 -5 -3 -12 5 -8 2 -9 -12 -3 -10 4 -32 10 -47 13 -23 3 -29 0 -34 -17z"/> <path d="M1185 1923 c-11 -3 -24 -10 -30 -16 -5 -7 -6 -9 -1 -5 5 4 17 -3 28 -15 11 -12 17 -16 13 -10 -3 7 -1 22 5 33 6 11 9 19 8 19 -2 -1 -12 -3 -23 -6z"/> <path d="M691 1898 c-1 -11 -8 -16 -21 -13 -22 4 -23 4 -14 -19 3 -9 12 -16 20 -16 8 0 11 -6 8 -15 -8 -20 3 -19 27 4 18 17 18 19 3 18 -9 -1 -19 4 -22 12 -3 9 0 12 10 9 8 -4 15 0 15 8 0 7 -4 11 -8 8 -4 -2 -10 2 -12 8 -4 8 -6 7 -6 -4z"/> <path d="M2065 1890 c4 -14 8 -34 9 -44 1 -11 10 -20 20 -22 12 -2 14 1 7 9 -5 7 -10 17 -11 22 -1 6 -9 21 -17 35 l-14 25 6 -25z"/> <path d="M572 1888 c-8 -8 -9 -15 -1 -25 8 -9 8 -13 1 -13 -6 0 -16 8 -21 18 -7 11 -10 13 -11 3 0 -8 -7 -11 -20 -8 -11 3 -20 1 -20 -4 0 -5 9 -9 21 -9 11 0 29 -5 40 -10 10 -6 19 -7 19 -2 0 5 14 15 30 22 28 12 29 14 13 26 -22 17 -36 17 -51 2z"/> <path d="M815 1889 c-4 -6 2 -13 14 -16 15 -4 18 -9 12 -17 -7 -8 -4 -12 10 -13 10 -1 19 2 19 7 0 5 6 7 14 4 8 -3 17 0 21 6 3 6 3 10 -2 9 -4 -1 -11 0 -15 1 -5 1 -11 3 -15 4 -5 1 -18 7 -30 14 -15 8 -24 9 -28 1z"/> <path d="M2760 1886 c0 -8 5 -18 10 -21 6 -4 8 -11 5 -16 -4 -5 1 -9 10 -9 10 0 13 4 8 13 -4 6 -8 18 -8 26 0 19 -25 27 -25 7z"/> <path d="M1124 1879 c-10 -17 7 -31 22 -18 11 9 14 8 14 -3 0 -8 -5 -19 -11 -25 -9 -9 -7 -10 10 -6 22 6 26 19 12 42 -11 17 -39 23 -47 10z"/> <path d="M1060 1872 c-39 -18 -100 -64 -110 -83 -13 -24 -4 -41 10 -19 9 14 14 7 11 -12 0 -5 4 -8 10 -8 5 0 7 -4 4 -10 -3 -5 -1 -10 5 -10 12 0 4 38 -11 55 -5 5 -9 14 -9 20 0 5 4 4 9 -4 13 -20 47 2 56 36 3 15 9 23 13 17 4 -5 17 -9 30 -8 22 1 27 -9 24 -48 -1 -10 3 -18 9 -18 14 0 1 82 -15 92 -13 9 -16 9 -36 0z"/> <path d="M1858 1805 c-1 -31 2 -73 8 -93 10 -32 11 -24 6 53 -2 50 -6 91 -7 93 -2 2 -5 -22 -7 -53z"/> <path d="M2942 1856 c14 -16 -46 -38 -109 -39 -43 -1 -64 -6 -68 -16 -3 -8 -4 -16 -1 -18 3 -4 136 17 214 33 12 2 22 11 22 19 0 9 -6 12 -15 9 -8 -4 -23 0 -33 7 -9 7 -14 9 -10 5z"/> <path d="M1471 1824 c-6 -14 -9 -30 -5 -35 3 -5 -2 -12 -10 -15 -19 -7 -22 -35 -3 -31 6 1 11 -3 10 -10 -2 -6 -4 -26 -5 -42 -1 -17 -6 -31 -10 -31 -7 0 -13 40 -9 63 0 4 -4 7 -10 7 -6 0 -9 -7 -5 -15 3 -9 -3 -24 -14 -35 -11 -11 -16 -20 -11 -20 6 0 13 5 17 11 4 8 9 7 15 -2 12 -20 11 -41 -2 -33 -7 4 -9 0 -5 -14 4 -12 1 -34 -7 -49 -7 -15 -12 -37 -9 -48 3 -16 1 -18 -9 -8 -10 10 -10 18 0 40 12 26 11 27 -5 11 -12 -12 -15 -23 -9 -45 5 -15 9 -31 10 -35 2 -5 3 -12 4 -18 3 -25 19 -5 34 43 9 30 30 66 47 82 16 16 30 34 30 39 0 6 -6 4 -13 -4 -7 -8 -22 -23 -34 -33 l-21 -18 17 65 c9 36 20 68 23 72 4 3 2 14 -4 24 -9 14 -9 22 1 34 7 9 17 13 23 10 5 -3 15 0 23 6 11 9 12 15 2 25 -10 11 -16 10 -34 -8 -13 -11 -23 -16 -23 -11 0 5 9 15 20 22 23 14 27 32 7 32 -8 0 -19 -12 -26 -26z"/> <path d="M1555 1809 c-4 -5 0 -18 9 -28 23 -25 20 -52 -9 -80 -31 -29 -35 -67 -6 -52 10 6 21 17 25 26 8 21 29 19 44 -5 7 -11 18 -20 25 -20 6 0 4 5 -6 11 -9 6 -15 14 -12 19 3 5 1 11 -5 15 -5 3 -10 11 -10 17 0 7 6 6 15 -2 8 -7 16 -10 16 -6 1 3 2 10 3 16 0 5 7 15 14 22 17 17 15 31 -3 25 -8 -4 -17 -1 -21 5 -4 6 -14 -3 -25 -23 l-18 -34 4 41 c3 38 2 41 -17 36 -17 -4 -20 -2 -15 11 7 19 2 23 -8 6z"/> <path d="M1702 1790 c-19 -15 -21 -23 -13 -37 10 -17 10 -17 11 0 0 9 3 17 8 17 4 0 13 9 20 20 15 25 4 25 -26 0z"/> <path d="M670 1739 c0 -15 5 -19 15 -15 10 3 18 -1 23 -12 5 -13 8 -11 13 13 6 25 7 22 6 -15 -2 -36 -6 -45 -22 -48 -11 -2 -29 -7 -40 -12 -25 -11 -185 -19 -185 -9 0 12 32 20 105 26 39 3 79 13 90 21 18 13 16 14 -25 7 -54 -8 -80 -11 -171 -20 -40 -4 -66 -11 -63 -17 3 -5 12 -7 18 -5 7 3 19 1 27 -4 11 -7 11 -9 -2 -9 -9 0 -48 -9 -85 -21 -57 -17 -77 -30 -116 -71 -28 -29 -45 -55 -41 -64 3 -7 9 -11 14 -8 5 3 9 0 9 -5 0 -6 -5 -11 -11 -11 -5 0 -8 -4 -4 -9 3 -5 0 -13 -6 -17 -7 -4 -9 -3 -6 2 3 6 2 15 -2 22 -4 7 -14 -2 -26 -25 -15 -27 -17 -37 -8 -40 8 -3 2 -15 -16 -34 -17 -16 -33 -38 -36 -49 -4 -11 -11 -20 -16 -20 -5 0 -9 -12 -9 -26 0 -16 -4 -23 -12 -18 -8 5 -9 0 -6 -14 5 -16 2 -22 -10 -22 -12 0 -13 -3 -4 -12 8 -8 6 -17 -8 -36 -11 -14 -20 -31 -20 -38 0 -7 -10 -29 -21 -49 -20 -34 -19 -66 1 -35 7 11 10 11 10 2 0 -7 -6 -15 -13 -18 -7 -2 -14 -23 -15 -47 l-2 -42 25 55 c15 30 35 84 47 120 31 99 102 237 166 320 107 140 186 179 379 187 l122 6 6 46 c4 25 10 56 15 69 9 21 7 22 -40 22 -44 0 -50 -2 -50 -21z m-277 -152 c-35 -18 -81 -50 -104 -71 -30 -29 -40 -34 -37 -20 6 35 93 100 152 114 54 13 53 10 -11 -23z"/> <path d="M790 1751 c0 -4 9 -16 20 -26 11 -10 18 -20 16 -23 -6 -5 10 -25 54 -68 24 -23 38 -30 45 -23 7 7 4 14 -7 23 -10 7 -14 17 -10 22 4 4 -2 2 -12 -6 -18 -14 -19 -13 -13 2 4 12 2 15 -9 11 -10 -4 -12 0 -8 11 4 10 1 16 -9 16 -8 0 -17 9 -20 21 -4 16 -2 20 12 16 11 -2 17 2 18 12 1 13 -8 17 -38 18 -21 1 -39 -2 -39 -6z"/> <path d="M1041 1700 c-5 -16 -15 -30 -21 -30 -6 0 -9 -4 -5 -10 8 -13 35 -1 35 17 0 10 7 13 23 9 12 -3 16 -3 10 0 -7 3 -13 14 -13 25 0 29 -17 23 -29 -11z"/> <path d="M2815 1720 c-3 -5 -3 -10 0 -10 4 0 0 -7 -9 -15 -20 -21 -25 -19 -19 8 4 20 3 20 -7 4 -9 -14 -15 -15 -25 -7 -10 8 -15 7 -19 -8 -4 -10 -16 -24 -29 -30 -160 -78 -258 -123 -287 -132 -35 -10 -35 -10 8 -5 24 3 69 18 100 34 31 16 68 32 82 36 47 13 160 68 160 77 0 5 4 6 10 3 17 -11 69 25 70 48 0 11 -28 9 -35 -3z"/> <path d="M1647 1614 c-5 -6 19 -64 26 -64 1 0 4 11 5 25 1 18 -3 25 -16 25 -14 0 -15 2 -2 10 8 5 10 10 4 10 -6 0 -13 -3 -17 -6z"/> <path d="M1345 1541 c-3 -10 -3 -26 1 -35 4 -10 0 -18 -10 -22 -9 -3 -16 -10 -16 -15 0 -5 11 -2 25 7 23 15 37 53 15 39 -7 -4 -9 2 -4 19 7 30 -2 36 -11 7z"/> <path d="M1187 1535 c-4 -8 -13 -15 -22 -15 -8 0 -15 -7 -15 -16 0 -9 -5 -12 -12 -8 -7 4 -2 -4 12 -17 l25 -24 12 45 c12 43 11 66 0 35z"/> <path d="M1494 1503 c2 -10 -10 -31 -26 -46 -23 -23 -26 -32 -17 -43 10 -12 9 -13 -5 -8 -13 5 -16 -1 -16 -29 0 -26 6 -39 25 -51 23 -15 26 -15 31 -1 4 9 4 19 1 22 -4 3 -1 15 5 27 10 19 10 20 -5 8 -12 -11 -20 -11 -34 -2 -16 10 -16 11 -1 6 22 -7 33 11 19 28 -9 11 -8 18 5 30 9 10 19 14 23 11 3 -4 -2 -13 -12 -20 -10 -7 -14 -16 -9 -19 11 -6 35 26 46 61 5 16 2 25 -13 32 -16 9 -19 8 -17 -6z"/> <path d="M1703 1493 c9 -11 14 -23 10 -28 -5 -4 -3 -5 3 -2 7 4 17 0 24 -8 16 -19 31 -19 24 0 -4 8 -12 15 -20 15 -8 0 -14 4 -14 10 0 5 -10 15 -22 21 -22 12 -22 11 -5 -8z"/> <path d="M1816 1501 c-4 -6 -2 -19 4 -30 12 -24 13 -34 2 -27 -5 3 -9 -1 -9 -9 0 -8 6 -15 12 -15 8 0 12 14 11 40 -2 42 -10 58 -20 41z"/> <path d="M1109 1473 c0 -5 -1 -24 -2 -43 -1 -20 -7 -35 -14 -36 -7 -1 -17 -2 -23 -3 -5 0 -10 -5 -10 -10 0 -6 12 -6 30 0 27 10 30 15 30 55 0 24 -2 44 -5 44 -3 0 -5 -3 -6 -7z"/> <path d="M1204 1464 c-15 -13 -16 -15 -2 -10 12 3 15 1 11 -10 -3 -7 0 -14 6 -14 6 0 11 11 11 25 0 29 0 30 -26 9z"/> <path d="M1355 1457 c-11 -7 -20 -23 -20 -37 0 -14 -7 -36 -15 -50 -9 -14 -10 -21 -3 -17 7 4 16 0 22 -10 10 -17 10 -17 11 0 0 9 4 17 10 17 5 0 7 -7 3 -16 -4 -12 -2 -15 8 -12 8 2 15 21 17 41 2 20 7 37 11 37 18 0 18 37 0 48 -22 14 -19 14 -44 -1z m23 -48 c-7 -5 -9 -9 -3 -9 5 0 3 -6 -3 -12 -19 -19 -34 9 -19 33 8 14 14 15 25 7 10 -9 11 -13 0 -19z"/> <path d="M1053 1447 c-12 -6 -21 -19 -20 -28 1 -15 3 -15 24 -2 13 9 23 22 23 29 0 8 -1 13 -2 13 -2 -1 -13 -6 -25 -12z"/> <path d="M1882 1422 c3 -39 2 -43 -17 -38 -18 4 -18 3 3 -11 12 -8 22 -21 22 -27 0 -6 11 -24 24 -41 l25 -30 21 21 22 22 -24 -5 c-21 -4 -28 1 -41 30 -10 19 -17 48 -17 64 0 15 -5 35 -11 43 -8 11 -9 4 -7 -28z"/> <path d="M1620 1433 c0 -5 6 -15 13 -22 10 -11 9 -13 -1 -7 -13 8 -45 -19 -48 -40 -1 -8 2 -14 8 -14 6 0 8 6 5 13 -3 7 4 19 14 25 19 12 25 4 12 -14 -5 -5 -1 -3 7 6 19 19 80 26 80 10 0 -7 7 -10 15 -6 10 4 15 -1 16 -17 0 -12 3 -16 6 -9 2 6 9 10 14 6 5 -3 9 -1 9 5 0 5 -18 18 -40 28 -22 10 -40 24 -40 32 0 11 -4 10 -16 -5 -13 -16 -15 -16 -10 -1 3 9 1 17 -4 17 -6 0 -10 -5 -10 -11 0 -8 -5 -8 -15 1 -8 7 -15 8 -15 3z"/> <path d="M1139 1403 c-9 -11 -10 -14 -1 -9 7 4 15 0 19 -11 10 -26 33 -41 55 -35 17 4 18 2 6 -24 -7 -16 -19 -35 -26 -43 -11 -11 -11 -15 -1 -22 17 -10 40 9 37 30 -2 11 8 19 30 26 17 5 32 13 32 18 0 4 -9 6 -19 2 -14 -4 -23 0 -31 15 -8 15 -17 19 -34 14 -18 -4 -26 1 -38 26 -14 28 -16 29 -29 13z"/> <path d="M2200 1393 c-51 -34 -91 -73 -75 -73 8 0 15 5 15 10 0 6 5 10 10 10 6 0 27 16 47 35 40 38 40 44 3 18z"/> <path d="M690 1310 c0 -5 -14 -17 -30 -27 -49 -28 -102 -123 -70 -123 9 0 14 13 12 32 -1 5 74 76 103 96 6 4 18 6 29 4 10 -2 23 2 30 8 8 10 7 11 -4 8 -8 -3 -27 -1 -42 3 -16 4 -28 4 -28 -1z"/> <path d="M1397 1303 c-4 -3 -7 -17 -7 -30 0 -21 3 -22 20 -13 15 8 20 8 20 -2 0 -7 9 -19 21 -26 17 -11 15 -5 -11 32 -33 49 -33 49 -43 39z"/> <path d="M771 1273 c0 -11 3 -13 6 -5 2 6 9 10 14 6 5 -3 7 -10 4 -15 -9 -13 -43 -11 -47 3 -3 7 -7 5 -11 -6 -5 -11 -3 -15 5 -10 7 5 9 2 6 -7 -4 -10 2 -14 20 -16 15 0 20 2 13 6 -8 5 -2 12 18 21 17 7 31 19 31 27 0 12 -3 13 -14 4 -10 -8 -16 -9 -21 -1 -10 16 -25 12 -24 -7z"/> <path d="M887 1270 c-3 -13 1 -24 14 -31 15 -7 19 -7 17 3 -2 7 2 12 8 11 7 -1 10 6 7 17 -6 22 -23 17 -23 -6 0 -8 -4 -14 -9 -14 -5 0 -7 9 -4 20 3 11 3 20 0 20 -2 0 -7 -9 -10 -20z"/> <path d="M1494 1269 c4 -13 10 -33 13 -43 5 -14 3 -17 -7 -11 -10 6 -12 4 -7 -8 4 -12 0 -15 -22 -15 -29 1 -91 -22 -91 -34 0 -6 44 -3 108 8 19 3 32 2 29 -3 -3 -5 5 -13 18 -19 18 -9 25 -9 29 2 3 7 2 14 -2 16 -11 5 -52 84 -52 101 0 9 -5 19 -12 23 -8 5 -9 0 -4 -17z"/> <path d="M1013 1264 c-7 -7 -13 -21 -13 -31 0 -11 3 -14 8 -7 4 6 15 10 25 8 9 -1 17 4 17 12 0 9 -4 13 -9 9 -5 -3 -11 1 -13 9 -2 12 -5 12 -15 0z"/> <path d="M1900 1271 c0 -8 11 -29 25 -46 13 -18 21 -35 18 -39 -4 -3 1 -6 10 -6 10 0 38 -27 64 -60 25 -33 50 -60 55 -60 5 0 6 -4 3 -10 -3 -5 -2 -10 4 -10 5 0 13 -14 16 -31 5 -20 10 -27 15 -19 9 15 39 -27 66 -92 10 -27 23 -48 27 -48 5 0 6 -4 3 -9 -3 -5 2 -30 10 -55 12 -33 38 -70 91 -124 42 -42 93 -100 115 -129 22 -28 54 -63 72 -77 26 -19 38 -42 59 -108 14 -46 29 -96 33 -111 3 -15 9 -25 12 -22 10 10 2 88 -11 104 -9 12 -9 13 1 7 16 -10 15 0 -4 29 -9 14 -13 25 -9 25 4 0 2 6 -4 13 -6 8 -8 17 -4 20 3 4 1 7 -5 7 -7 0 -12 4 -12 9 0 5 -36 46 -80 91 -44 45 -80 86 -80 92 0 6 -9 19 -21 29 -11 10 -18 22 -15 27 7 11 -18 35 -27 26 -8 -8 -37 21 -37 36 0 6 -4 9 -9 5 -12 -7 -53 50 -43 60 4 5 1 5 -5 1 -9 -5 -13 2 -13 24 0 17 4 29 8 26 5 -3 9 1 9 9 0 11 -4 12 -14 4 -15 -13 -29 12 -17 32 4 8 3 9 -4 5 -7 -4 -12 -3 -12 3 0 5 5 13 11 17 7 4 -1 17 -21 35 -17 16 -28 34 -25 40 4 6 -2 13 -13 16 -11 3 -23 15 -26 27 -3 12 -14 30 -24 41 -10 11 -21 28 -25 39 -4 11 -13 16 -22 12 -11 -4 -15 2 -15 19 0 13 -8 29 -19 34 -10 6 -26 26 -35 45 -9 19 -21 38 -27 42 -7 4 -7 -1 0 -15 17 -31 -4 -26 -28 7 -11 15 -21 21 -21 13z"/> <path d="M1125 1234 c-16 -8 -41 -24 -55 -34 -18 -15 -7 -12 39 10 60 27 66 28 83 13 10 -8 15 -20 12 -24 -3 -5 3 -9 12 -9 33 0 0 -18 -61 -34 -33 -8 -61 -20 -63 -25 -2 -5 -11 -7 -20 -4 -14 6 -15 4 -4 -9 11 -13 9 -17 -15 -23 -15 -3 -39 -15 -54 -26 -36 -26 -58 -25 -34 1 10 11 14 20 9 20 -18 0 -34 -24 -34 -48 0 -14 -11 -35 -25 -48 -14 -13 -25 -28 -25 -35 0 -6 19 7 43 30 23 23 75 57 115 76 39 19 72 39 72 43 0 13 114 50 178 58 66 8 78 24 18 24 -32 0 -60 9 -96 30 -59 35 -56 34 -95 14z"/> <path d="M2786 1173 c-15 -15 -4 -23 29 -20 19 1 35 6 35 10 0 5 -8 7 -17 5 -10 -1 -23 1 -29 4 -6 4 -14 5 -18 1z"/> <path d="M1894 1141 c3 -5 -4 -21 -15 -35 -23 -29 -20 -42 7 -32 9 3 14 12 10 21 -3 8 -2 15 3 15 5 0 11 9 14 20 3 13 0 20 -10 20 -8 0 -12 -4 -9 -9z"/> <path d="M1938 1088 c-18 -23 -23 -38 -12 -38 4 0 13 8 21 18 13 16 14 15 10 -5 -3 -13 2 -27 12 -35 14 -11 14 -11 3 4 -9 12 -10 18 -2 23 8 5 8 11 2 17 -6 6 -8 17 -5 24 8 21 -10 16 -29 -8z"/> <path d="M502 1072 c6 -7 17 -11 25 -8 15 6 18 -10 3 -17 -6 -3 -5 -4 2 -3 7 2 13 11 13 21 0 13 -8 19 -27 19 -21 1 -25 -1 -16 -12z"/> <path d="M679 1059 c-16 -17 -29 -36 -29 -43 0 -6 4 -5 9 3 5 7 14 10 20 7 10 -6 16 7 9 18 -2 2 6 13 16 25 11 12 16 21 12 21 -5 0 -21 -14 -37 -31z"/> <path d="M1811 1044 c-25 -32 -28 -51 -3 -26 33 34 45 52 34 52 -6 0 -20 -12 -31 -26z"/> <path d="M1547 1029 c3 -11 14 -26 24 -32 11 -7 19 -16 19 -20 0 -5 14 -23 32 -40 18 -18 28 -25 24 -17 -4 9 -2 8 7 -2 8 -10 16 -16 19 -13 2 3 11 -6 18 -20 7 -14 18 -25 23 -25 5 0 3 -8 -4 -17 -11 -15 -11 -16 1 -5 21 18 30 15 30 -10 0 -15 3 -19 10 -12 14 14 2 44 -16 44 -8 0 -14 4 -14 9 0 8 -168 181 -176 181 -1 0 0 -9 3 -21z"/> <path d="M1999 1027 c7 -9 11 -23 8 -32 -4 -8 -2 -17 4 -20 5 -4 7 -10 4 -15 -3 -5 0 -12 6 -16 8 -4 9 -3 5 4 -4 7 -2 12 3 12 6 0 11 -8 12 -17 0 -15 2 -15 8 2 5 11 4 22 0 23 -5 2 -9 10 -9 18 0 8 -5 14 -11 14 -5 0 -8 4 -5 8 2 4 -5 14 -17 22 -20 12 -21 12 -8 -3z"/> <path d="M720 1016 c0 -4 10 -18 23 -32 21 -22 25 -23 37 -10 7 10 8 16 2 16 -6 0 -13 -6 -16 -12 -4 -7 -4 -3 -2 10 2 12 0 19 -5 16 -6 -3 -16 0 -24 6 -8 7 -15 9 -15 6z"/> <path d="M2098 965 c-8 -8 2 -45 12 -45 5 0 11 -13 15 -29 3 -16 13 -35 21 -42 8 -6 14 -22 14 -34 0 -12 7 -28 15 -35 18 -15 15 -5 -23 80 -13 30 -25 60 -26 65 -3 19 -22 46 -28 40z"/> <path d="M804 919 c-4 -8 -3 -9 4 -5 8 5 12 -1 12 -18 0 -14 4 -27 9 -30 5 -4 7 4 4 16 -7 28 1 22 21 -17 13 -24 16 -26 16 -10 -1 35 -52 85 -66 64z"/> <path d="M521 887 c-8 -18 -15 -39 -17 -47 -10 -45 -38 -91 -88 -142 -31 -31 -56 -62 -56 -69 0 -13 26 7 69 51 13 14 20 19 17 13 -4 -7 -5 -13 -3 -13 11 0 45 69 62 125 10 33 24 63 29 67 6 4 7 8 2 8 -5 0 -3 6 3 14 7 8 8 17 3 19 -4 3 -14 -9 -21 -26z"/> <path d="M742 832 c-10 -3 -8 -8 5 -17 16 -12 16 -17 5 -36 -12 -18 -12 -23 0 -30 16 -11 37 -12 23 -1 -6 4 -10 13 -9 20 1 6 2 17 3 23 0 5 5 8 10 5 5 -4 7 3 4 14 -3 11 -9 18 -13 15 -5 -3 -10 -1 -12 3 -1 5 -9 7 -16 4z"/> <path d="M928 819 c-3 -9 10 -30 33 -54 22 -22 39 -34 39 -27 0 7 -13 25 -29 41 -15 15 -30 34 -33 41 -3 11 -5 11 -10 -1z"/> <path d="M886 790 c11 -62 63 -134 89 -124 9 4 15 0 15 -10 0 -10 -6 -13 -17 -9 -15 5 -14 2 3 -17 29 -30 44 -20 31 22 -7 22 -21 39 -41 48 -17 8 -31 20 -31 25 0 6 -8 21 -17 35 -8 14 -21 34 -27 45 -10 17 -11 15 -5 -15z"/> <path d="M1769 818 c-9 -34 -5 -58 9 -58 12 -1 10 -5 -8 -15 -14 -8 -21 -14 -16 -15 4 0 1 -11 -8 -25 -9 -14 -14 -30 -11 -35 3 -6 2 -10 -2 -10 -5 0 -8 -25 -9 -55 0 -55 16 -79 40 -55 7 7 5 10 -5 10 -11 0 -14 13 -14 53 1 40 8 62 30 96 25 37 27 45 14 55 -8 6 -14 21 -13 34 1 17 -4 31 -7 20z"/> <path d="M2090 785 c0 -17 6 -37 13 -44 6 -8 7 -11 1 -8 -6 3 -11 0 -11 -8 0 -8 3 -13 5 -10 3 3 17 -5 30 -17 l25 -23 -13 24 c-6 12 -10 31 -7 41 3 13 0 17 -9 13 -15 -6 -19 7 -6 23 4 5 5 8 3 7 -2 -2 -10 5 -17 15 -12 15 -13 14 -14 -13z"/> <path d="M1973 756 c-15 -18 -15 -106 1 -121 16 -16 51 9 59 43 6 24 -11 31 -18 7 -16 -49 -14 -47 -28 -33 -15 14 -16 56 -3 96 8 25 6 27 -11 8z"/> <path d="M517 723 c-15 -20 -24 -39 -22 -42 7 -6 55 52 55 67 0 19 -5 15 -33 -25z"/> <path d="M1832 697 c-2 -17 -8 -38 -15 -47 -7 -8 -18 -27 -25 -42 -9 -21 -8 -29 4 -38 11 -10 14 -9 14 6 0 11 9 36 20 57 20 38 26 82 12 91 -4 2 -9 -10 -10 -27z"/> <path d="M2180 712 c0 -9 12 -21 67 -72 18 -17 30 -30 26 -30 -3 0 3 -10 15 -23 12 -13 20 -26 16 -29 -3 -4 4 -12 16 -18 12 -6 20 -14 17 -16 -2 -3 19 -29 47 -59 95 -102 134 -171 165 -295 40 -159 39 -156 56 -117 6 12 16 23 23 23 6 1 17 2 23 3 5 0 8 5 5 10 -3 4 6 6 19 3 18 -3 25 0 25 11 0 10 7 14 23 10 22 -4 22 -4 2 11 -11 8 -26 21 -34 27 -12 11 -13 8 -7 -14 6 -24 3 -27 -18 -27 -14 0 -31 -7 -40 -15 -18 -18 -38 -20 -35 -2 3 18 -11 67 -31 107 -10 19 -21 55 -25 79 -7 40 -57 120 -118 186 -10 11 -27 34 -37 50 -10 17 -33 38 -49 48 -17 10 -29 23 -26 28 4 5 -1 9 -9 9 -10 0 -13 6 -10 15 4 9 0 15 -10 15 -9 0 -16 6 -16 14 0 8 -8 17 -18 20 -11 4 -25 18 -32 31 -13 24 -30 34 -30 17z"/> <path d="M2060 681 c0 -12 -4 -21 -10 -21 -5 0 -10 -4 -10 -10 0 -5 7 -6 17 -3 10 4 14 2 9 -5 -8 -14 10 -26 26 -16 8 5 6 11 -7 20 -10 7 -15 20 -12 28 4 9 2 18 -3 21 -6 4 -10 -3 -10 -14z"/> <path d="M674 674 c3 -9 6 -17 6 -20 0 -2 8 0 18 3 14 6 15 4 5 -8 -19 -23 -2 -73 26 -77 23 -4 23 -5 21 -135 -2 -137 7 -237 21 -237 19 0 14 -38 -10 -70 -50 -69 -77 -77 -93 -30 -3 8 -8 -2 -12 -22 -6 -35 -33 -57 -54 -44 -4 2 -14 -5 -21 -16 -12 -19 -11 -20 6 -14 10 4 30 10 46 13 15 3 30 10 33 14 3 5 10 7 15 3 5 -3 21 2 34 10 14 9 25 13 25 9 0 -5 4 -3 8 2 13 19 69 55 76 48 3 -3 6 0 6 9 0 8 23 30 50 49 75 51 161 189 118 189 -13 0 -15 48 -5 134 2 15 -2 46 -10 68 -7 22 -11 43 -8 48 2 4 -2 13 -10 20 -20 16 -20 2 0 -74 8 -32 13 -62 10 -66 -3 -5 -9 -50 -14 -100 -8 -89 -9 -92 -50 -132 -22 -23 -41 -36 -41 -30 0 6 -13 -3 -29 -19 -50 -50 -52 -47 -56 106 -5 168 -18 299 -32 313 -10 10 -11 18 -4 25 15 15 14 24 -3 30 -9 4 -12 0 -9 -11 2 -9 -3 -26 -12 -37 -16 -20 -16 -20 -11 3 7 33 -3 52 -21 45 -11 -4 -14 -2 -9 5 4 7 2 12 -4 12 -7 0 -9 -7 -6 -16z"/> <path d="M795 680 c3 -5 1 -10 -4 -10 -6 0 -11 -10 -11 -22 1 -21 2 -22 14 -6 7 10 16 15 19 11 9 -8 9 1 1 21 -3 9 -10 16 -16 16 -5 0 -6 -4 -3 -10z"/> <path d="M2124 662 c-16 -10 -28 -52 -15 -52 5 0 13 9 16 20 3 11 11 20 16 20 13 0 11 -18 -3 -23 -9 -3 -7 -11 8 -25 15 -14 20 -29 17 -46 -4 -20 4 -34 41 -70 25 -25 46 -55 46 -67 0 -16 4 -19 21 -14 14 5 19 3 15 -3 -3 -6 -2 -14 4 -17 6 -4 8 -16 5 -28 -4 -15 -3 -18 3 -9 6 9 13 1 24 -30 9 -24 25 -70 37 -104 12 -33 21 -65 20 -70 -5 -27 2 -84 11 -84 6 0 10 7 10 15 0 22 15 18 29 -7 8 -16 22 -24 46 -25 31 -3 35 0 35 23 0 24 -1 24 -22 10 -12 -9 -28 -16 -34 -16 -12 0 -48 75 -59 125 -14 61 -58 172 -94 232 -28 49 -45 66 -75 78 -36 15 -37 17 -22 34 17 19 21 32 9 30 -20 -3 -26 2 -13 11 19 12 1 46 -24 44 -9 -1 -13 2 -11 7 6 8 -15 49 -25 49 -3 0 -10 -4 -16 -8z"/> <path d="M869 608 c-6 -29 -6 -60 0 -50 13 21 25 14 38 -21 6 -17 12 -26 12 -19 2 25 -45 109 -50 90z"/> <path d="M660 558 c0 -10 -4 -18 -10 -18 -5 0 -7 -7 -4 -15 4 -8 12 -15 20 -15 16 0 18 28 4 50 -8 13 -10 12 -10 -2z"/> <path d="M541 538 c-7 -12 -15 -47 -17 -77 -3 -30 -9 -58 -16 -62 -6 -4 -12 -40 -14 -80 -2 -41 -6 -125 -10 -188 -4 -75 -2 -117 5 -124 19 -19 25 2 23 78 -3 77 32 367 49 411 11 30 12 64 1 64 -4 0 -13 -10 -21 -22z"/> <path d="M1976 552 c-10 -10 -7 -34 4 -27 6 3 10 -1 10 -9 0 -8 6 -19 13 -23 13 -8 29 -37 31 -58 1 -5 8 -28 15 -50 7 -22 11 -65 9 -95 -3 -48 -6 -55 -25 -58 -13 -2 -23 1 -23 7 0 6 -7 11 -15 11 -8 0 -15 -6 -15 -14 0 -8 -2 -20 -3 -28 -2 -7 -2 -10 0 -5 10 17 32 5 47 -28 16 -33 16 -35 -5 -59 -21 -24 -23 -24 -36 -8 -12 15 -13 14 -11 -13 1 -16 6 -36 12 -43 16 -22 1 -22 -39 -2 -21 11 -41 17 -44 15 -6 -7 31 -34 47 -35 7 0 26 -7 42 -15 30 -16 48 -6 33 18 -19 30 14 101 42 91 28 -11 30 159 4 297 -9 43 -20 66 -49 97 -21 22 -41 38 -44 34z"/> <path d="M384 513 c-4 -10 -9 -28 -10 -41 -2 -12 -12 -36 -24 -52 -12 -17 -18 -30 -13 -30 4 0 0 -7 -11 -15 -10 -7 -15 -18 -12 -23 3 -6 -1 -27 -10 -48 -17 -40 -54 -93 -54 -78 -1 11 -30 -27 -30 -39 0 -4 5 -5 10 -2 13 8 13 1 -2 -48 -11 -37 -13 -39 -18 -16 l-6 24 -6 -27 c-8 -44 15 -55 46 -21 14 15 26 36 26 46 0 10 8 34 19 55 10 20 28 69 40 108 12 39 35 97 51 127 30 56 39 97 21 97 -5 0 -12 -8 -17 -17z"/> <path d="M1754 485 c16 -12 17 -15 4 -20 -13 -5 -13 -11 -4 -31 6 -13 15 -24 19 -24 4 0 3 9 -4 21 -8 15 -8 24 0 32 6 6 11 9 12 7 7 -42 4 -90 -7 -90 -7 0 -10 -8 -7 -21 5 -18 3 -20 -18 -15 l-24 7 25 -15 c18 -10 29 -11 37 -4 16 13 17 3 3 -23 -8 -14 -7 -19 2 -20 7 0 4 -4 -7 -9 -17 -7 -17 -9 -2 -9 20 -1 21 -5 6 -33 -8 -15 -8 -19 0 -13 13 8 11 -31 -2 -52 -6 -9 -2 -13 12 -13 22 0 28 -14 11 -25 -6 -4 -3 -15 7 -30 11 -13 21 -19 24 -13 12 18 30 -2 23 -25 -6 -20 -6 -20 11 -4 16 17 16 19 -1 40 -11 12 -22 24 -25 27 -28 24 -39 94 -39 252 0 78 -3 96 -14 92 -7 -3 -16 2 -19 10 -4 9 -14 16 -24 16 -17 -1 -17 -2 1 -15z"/> <path d="M599 423 c-1 -4 0 -26 0 -48 1 -30 -1 -36 -8 -25 -8 11 -11 2 -11 -35 0 -34 3 -45 9 -35 6 8 8 17 6 21 -3 3 4 14 15 24 11 10 20 25 20 33 0 12 3 12 15 2 13 -11 14 -8 9 21 -8 39 -14 50 -14 26 0 -9 -4 -17 -10 -17 -5 0 -10 6 -10 14 0 16 -19 33 -21 19z"/> <path d="M266 363 c-9 -18 -12 -33 -7 -33 13 0 33 38 28 53 -2 7 -11 -3 -21 -20z"/> <path d="M1361 354 c-1 -27 4 -44 13 -47 11 -5 12 1 4 31 -15 58 -16 60 -17 16z"/> <path d="M396 331 c-11 -12 -16 -31 -14 -53 l3 -33 28 53 c19 37 23 52 14 52 -8 0 -22 -9 -31 -19z"/> <path d="M823 323 c-11 -4 -8 -58 3 -72 6 -7 34 28 34 42 0 18 -21 36 -37 30z"/> <path d="M2220 320 c0 -4 7 -13 16 -21 13 -10 17 -10 25 2 14 22 11 27 -16 27 -14 0 -25 -4 -25 -8z"/> <path d="M2430 300 c0 -5 7 -10 15 -10 8 0 15 -4 15 -8 0 -5 7 -17 15 -28 13 -17 14 -17 15 -1 0 18 -33 57 -50 57 -5 0 -10 -4 -10 -10z"/> <path d="M2440 267 c0 -12 33 -67 40 -67 5 0 7 -6 4 -14 -3 -8 -1 -17 5 -21 7 -4 8 0 4 11 -5 14 -3 16 13 11 16 -6 17 -5 4 5 -8 7 -27 28 -43 46 -15 19 -27 32 -27 29z"/> <path d="M588 171 c-10 -21 -18 -56 -18 -79 0 -40 1 -41 20 -30 11 7 20 21 20 30 0 10 5 18 10 18 13 0 13 33 1 46 -5 5 -11 19 -13 30 -2 18 -6 16 -20 -15z"/> <path d="M1383 100 c-3 -11 -9 -20 -12 -20 -17 0 -6 -26 11 -27 14 -1 17 1 9 10 -13 17 3 42 20 31 12 -6 12 -5 0 9 -17 22 -22 21 -28 -3z"/> <path d="M2305 100 c3 -5 1 -10 -4 -10 -22 0 -10 -26 20 -44 26 -15 33 -16 40 -5 14 22 11 26 -27 48 -19 12 -32 17 -29 11z"/> <path d="M415 78 c-11 -37 -11 -78 2 -78 13 0 22 29 20 68 -1 24 -15 30 -22 10z"/> <path d="M358 53 c-2 -20 -9 -28 -23 -28 -30 0 -24 -20 8 -23 26 -3 27 -1 27 37 0 47 -7 55 -12 14z"/> </g> </svg> 